<mxfile host="app.diagrams.net" modified="2024-06-06T22:03:52.612Z" agent="Mozilla/5.0 (Windows NT 10.0; Win64; x64) AppleWebKit/537.36 (KHTML, like Gecko) Chrome/123.0.0.0 Safari/537.36 OPR/109.0.0.0" version="24.5.1" etag="YDPJT89m2AnksEGDaHz1" type="github">
  <diagram name="PÃ¡gina-1" id="P26kE0XQGrIbcna-x5mL">
    <mxGraphModel>
      <root>
        <mxCell id="0" />
        <mxCell id="1" parent="0" />
      </root>
    </mxGraphModel>
  </diagram>
</mxfile>
